<svg width="100" height="89" viewBox="0 0 100 89" fill="none" xmlns="http://www.w3.org/2000/svg">
<path d="M38.6878 70.1357H15.8371C14.5875 70.1357 13.5746 71.1486 13.5746 72.3982C13.5746 73.6477 14.5875 74.6606 15.8371 74.6606H38.6878C39.9373 74.6606 40.9502 73.6477 40.9502 72.3982C40.9502 71.1486 39.9373 70.1357 38.6878 70.1357Z" fill="black"/>
<path d="M72.8507 70.1357H50C48.7504 70.1357 47.7375 71.1486 47.7375 72.3982C47.7375 73.6477 48.7504 74.6606 50 74.6606H72.8507C74.1 74.6606 75.1131 73.6477 75.1131 72.3982C75.1131 71.1486 74.1 70.1357 72.8507 70.1357Z" fill="black"/>
<path d="M72.8507 13.5747H15.8371C14.5875 13.5747 13.5746 14.5876 13.5746 15.8372C13.5746 17.0867 14.5875 18.0996 15.8371 18.0996H72.8507C74.1 18.0996 75.1131 17.0867 75.1131 15.8372C75.1131 14.5876 74.1 13.5747 72.8507 13.5747Z" fill="black"/>
<path d="M72.8507 24.8868H50C48.7504 24.8868 47.7375 25.8997 47.7375 27.1493C47.7375 28.3988 48.7504 29.4117 50 29.4117H72.8507C74.1 29.4117 75.1131 28.3988 75.1131 27.1493C75.1131 25.8997 74.1 24.8868 72.8507 24.8868Z" fill="black"/>
<path d="M72.8507 36.1991H50C48.7504 36.1991 47.7375 37.212 47.7375 38.4615C47.7375 39.7111 48.7504 40.724 50 40.724H72.8507C74.1 40.724 75.1131 39.7111 75.1131 38.4615C75.1131 37.212 74.1 36.1991 72.8507 36.1991Z" fill="black"/>
<path d="M72.8507 47.5114H50C48.7504 47.5114 47.7375 48.5242 47.7375 49.7738C47.7375 51.0233 48.7504 52.0362 50 52.0362H72.8507C74.1 52.0362 75.1131 51.0233 75.1131 49.7738C75.1131 48.5242 74.1 47.5114 72.8507 47.5114Z" fill="black"/>
<path d="M72.8507 58.8235H50C48.7504 58.8235 47.7375 59.8364 47.7375 61.0859C47.7375 62.3355 48.7504 63.3484 50 63.3484H72.8507C74.1 63.3484 75.1131 62.3355 75.1131 61.0859C75.1131 59.8364 74.1 58.8235 72.8507 58.8235Z" fill="black"/>
<path d="M38.6878 58.8235H15.8371C14.5875 58.8235 13.5746 59.8364 13.5746 61.0859C13.5746 62.3355 14.5875 63.3484 15.8371 63.3484H38.6878C39.9373 63.3484 40.9502 62.3355 40.9502 61.0859C40.9502 59.8364 39.9373 58.8235 38.6878 58.8235Z" fill="black"/>
<path d="M38.6878 24.8868H15.8371C14.5875 24.8868 13.5746 25.8997 13.5746 27.1493V50C13.5746 51.2495 14.5875 52.2624 15.8371 52.2624H38.6878C39.9373 52.2624 40.9502 51.2495 40.9502 50V27.1493C40.9502 25.8997 39.9373 24.8868 38.6878 24.8868ZM36.4253 47.7375H18.0995V29.4117H36.4253V47.7375Z" fill="black"/>
<path d="M95.4751 11.3122H88.6878V4.52489C88.6878 2.02986 86.6579 0 84.1629 0H4.52489C2.02986 0 0 2.02986 0 4.52489V76.9231C0 83.1606 5.07466 88.2353 11.3122 88.2353H88.6878C94.9253 88.2353 100 83.1606 100 76.9231V15.8371C100 13.3421 97.9701 11.3122 95.4751 11.3122ZM95.4751 76.9231C95.4751 80.6656 92.4303 83.7104 88.6878 83.7104H11.3122C7.56968 83.7104 4.52489 80.6656 4.52489 76.9231V4.52489H84.1629V73.5294C84.1629 76.6482 86.7002 79.1855 89.819 79.1855C91.0683 79.1855 92.0815 78.1726 92.0815 76.9231C92.0815 75.6735 91.0683 74.6606 89.819 74.6606C89.1953 74.6606 88.6878 74.1532 88.6878 73.5294V15.8371H95.4751V76.9231Z" fill="black"/>
</svg>
